ply
format ascii 1.0
comment : MagicaVoxel @ Ephtracy
element vertex 112
property float x
property float y
property float z
property uchar red
property uchar green
property uchar blue
end_header
0 0 20 153 204 255
0 1 20 153 204 255
0 2 20 153 204 255
0 3 20 153 204 255
0 4 20 153 204 255
0 5 20 153 204 255
0 6 20 153 204 255
0 7 20 153 204 255
0 8 20 153 204 255
0 9 20 153 204 255
8 0 20 153 204 255
8 1 20 153 204 255
8 2 20 153 204 255
8 3 20 153 204 255
8 4 20 153 204 255
8 5 20 153 204 255
8 6 20 153 204 255
8 7 20 153 204 255
8 8 20 153 204 255
8 9 20 153 204 255
1 0 20 153 255 0
1 1 20 153 255 0
1 2 20 153 255 0
1 3 20 153 255 0
1 4 20 153 255 0
1 5 20 153 255 0
1 6 20 153 255 0
1 7 20 153 255 0
1 8 20 153 255 0
1 9 20 153 255 0
9 0 20 153 255 0
9 1 20 153 255 0
9 2 20 153 255 0
9 3 20 153 255 0
9 4 20 153 255 0
9 5 20 153 255 0
9 6 20 153 255 0
9 7 20 153 255 0
9 8 20 153 255 0
9 9 20 153 255 0
2 0 20 204 153 0
3 0 20 204 153 0
4 0 20 204 153 0
5 0 20 204 153 0
6 0 20 204 153 0
7 0 20 204 153 0
2 6 20 204 153 0
3 6 20 204 153 0
4 6 20 204 153 0
5 6 20 204 153 0
6 6 20 204 153 0
7 6 20 204 153 0
2 1 20 204 102 255
3 1 20 204 102 255
4 1 20 204 102 255
5 1 20 204 102 255
6 1 20 204 102 255
7 1 20 204 102 255
2 7 20 204 102 255
3 7 20 204 102 255
4 7 20 204 102 255
5 7 20 204 102 255
6 7 20 204 102 255
7 7 20 204 102 255
2 2 20 255 0 51
3 2 20 255 0 51
4 2 20 255 0 51
5 2 20 255 0 51
6 2 20 255 0 51
7 2 20 255 0 51
2 8 20 255 0 51
3 8 20 255 0 51
4 8 20 255 0 51
5 8 20 255 0 51
6 8 20 255 0 51
7 8 20 255 0 51
2 3 20 255 204 255
3 3 20 255 204 255
4 3 20 255 204 255
5 3 20 255 204 255
6 3 20 255 204 255
7 3 20 255 204 255
2 9 20 255 204 255
3 9 20 255 204 255
4 9 20 255 204 255
5 9 20 255 204 255
6 9 20 255 204 255
7 9 20 255 204 255
4 5 20 0 0 136
4 4 20 0 0 136
3 5 20 102 0 255
5 5 20 0 0 136
3 4 20 0 0 136
5 4 20 102 0 255
2 5 20 0 0 136
6 5 20 102 0 255
2 4 20 0 0 136
6 4 20 0 0 136
7 5 20 0 0 136
7 4 20 0 0 136
0 0 21 170 170 170
1 0 21 170 170 170
0 1 21 170 170 170
1 1 21 170 170 170
9 9 21 0 0 17
8 9 21 0 0 17
9 8 21 0 0 17
9 0 21 102 255 51
8 0 21 102 255 51
0 9 21 51 0 153
1 9 21 51 0 153
0 9 22 51 0 153
