ply
format ascii 1.0
comment : MagicaVoxel @ Ephtracy
element vertex 25
property float x
property float y
property float z
property uchar red
property uchar green
property uchar blue
end_header
0 4 20 255 0 0
0 0 20 255 0 0
0 1 20 255 0 0
0 2 20 255 0 0
0 3 20 255 0 0
1 4 20 255 0 153
1 3 20 255 255 255
1 0 20 255 255 255
1 1 20 255 255 255
1 2 20 255 255 255
2 4 20 255 255 51
2 0 20 255 255 51
2 1 20 255 255 51
2 2 20 153 255 255
2 3 20 255 255 51
3 4 20 153 51 255
3 0 20 153 51 255
3 1 20 153 51 255
3 2 20 153 51 255
3 3 20 153 51 255
4 4 20 153 51 0
4 0 20 153 51 0
4 1 20 153 51 0
4 2 20 153 51 0
4 3 20 153 51 0
