ply
format ascii 1.0
comment : MagicaVoxel @ Ephtracy
element vertex 470
property float x
property float y
property float z
property uchar red
property uchar green
property uchar blue
end_header
10 9 20 153 102 51
10 8 20 153 102 51
10 10 20 153 102 51
0 19 20 153 102 51
11 9 20 153 102 51
10 7 20 153 102 51
0 18 20 153 102 51
11 8 20 153 102 51
10 11 20 153 102 51
19 19 20 153 102 51
11 10 20 153 102 51
8 9 20 153 102 51
12 9 20 153 102 51
10 6 20 153 102 51
1 19 20 153 102 51
11 7 20 153 102 51
8 8 20 153 102 51
12 8 20 153 102 51
10 12 20 153 102 51
0 0 20 153 102 51
11 11 20 153 102 51
8 10 20 153 102 51
12 10 20 153 102 51
7 9 20 153 102 51
13 9 20 153 102 51
10 5 20 153 102 51
0 17 20 153 102 51
11 6 20 153 102 51
8 7 20 153 102 51
12 7 20 153 102 51
7 8 20 153 102 51
13 8 20 153 102 51
10 13 20 153 102 51
19 18 20 153 102 51
11 12 20 153 102 51
8 11 20 153 102 51
12 11 20 153 102 51
7 10 20 153 102 51
13 10 20 153 102 51
6 9 20 153 102 51
14 9 20 153 102 51
10 4 20 153 102 51
1 18 20 153 102 51
11 5 20 153 102 51
8 6 20 153 102 51
12 6 20 153 102 51
7 7 20 153 102 51
13 7 20 153 102 51
6 8 20 153 102 51
14 8 20 153 102 51
10 14 20 153 102 51
18 19 20 153 102 51
11 13 20 153 102 51
8 12 20 153 102 51
12 12 20 153 102 51
7 11 20 153 102 51
13 11 20 153 102 51
6 10 20 153 102 51
14 10 20 153 102 51
5 9 20 204 0 255
15 9 20 51 153 255
10 3 20 153 102 51
2 19 20 153 102 51
11 4 20 153 102 51
8 5 20 153 102 51
12 5 20 153 102 51
7 6 20 153 102 51
13 6 20 153 102 51
6 7 20 153 102 51
14 7 20 153 102 51
5 8 20 153 102 51
15 8 20 153 102 51
10 15 20 153 102 51
0 1 20 153 102 51
11 14 20 153 102 51
8 13 20 153 102 51
12 13 20 153 102 51
7 12 20 153 102 51
13 12 20 153 102 51
6 11 20 153 102 51
14 11 20 153 102 51
5 10 20 153 102 51
15 10 20 153 102 51
4 9 20 204 0 153
16 9 20 0 51 255
10 2 20 153 102 51
19 0 20 153 102 51
11 3 20 153 102 51
8 4 20 153 102 51
12 4 20 153 102 51
7 5 20 153 102 51
13 5 20 153 102 51
6 6 20 153 102 51
14 6 20 153 102 51
5 7 20 153 102 51
15 7 20 153 102 51
4 8 20 204 0 255
16 8 20 51 153 255
10 16 20 153 102 51
1 0 20 153 102 51
11 15 20 153 102 51
8 14 20 153 102 51
12 14 20 153 102 51
7 13 20 153 102 51
13 13 20 153 102 51
6 12 20 153 102 51
14 12 20 153 102 51
5 11 20 153 102 51
15 11 20 153 102 51
4 10 20 204 0 255
16 10 20 51 153 255
3 9 20 204 0 255
17 9 20 51 153 255
10 1 20 153 102 51
0 16 20 153 102 51
11 2 20 255 51 102
8 3 20 153 102 51
12 3 20 255 51 102
7 4 20 153 102 51
13 4 20 153 102 51
6 5 20 153 102 51
14 5 20 153 102 51
5 6 20 153 102 51
15 6 20 153 102 51
4 7 20 153 102 51
16 7 20 153 102 51
3 8 20 153 102 51
17 8 20 153 102 51
10 17 20 153 102 51
19 17 20 153 102 51
11 16 20 153 102 51
8 15 20 153 102 51
12 15 20 153 102 51
7 14 20 153 102 51
13 14 20 153 102 51
6 13 20 153 102 51
14 13 20 153 102 51
5 12 20 153 102 51
15 12 20 153 102 51
4 11 20 153 102 51
16 11 20 153 102 51
3 10 20 153 102 51
17 10 20 153 102 51
2 9 20 153 102 51
18 9 20 153 102 51
10 0 20 153 102 51
1 17 20 153 102 51
11 1 20 153 102 51
8 2 20 153 102 51
12 2 20 255 0 0
7 3 20 153 102 51
13 3 20 153 102 51
6 4 20 153 102 51
14 4 20 153 102 51
5 5 20 153 102 51
15 5 20 153 102 51
4 6 20 153 102 51
16 6 20 153 102 51
3 7 20 153 102 51
17 7 20 153 102 51
2 8 20 153 102 51
18 8 20 153 102 51
10 18 20 153 102 51
18 18 20 153 102 51
11 17 20 153 102 51
8 16 20 153 102 51
12 16 20 153 102 51
7 15 20 153 102 51
13 15 20 153 102 51
6 14 20 153 102 51
14 14 20 153 102 51
5 13 20 153 102 51
15 13 20 153 102 51
4 12 20 153 102 51
16 12 20 153 102 51
3 11 20 153 102 51
17 11 20 153 102 51
2 10 20 153 102 51
18 10 20 153 102 51
1 9 20 153 102 51
19 9 20 153 102 51
2 18 20 153 102 51
11 0 20 153 102 51
8 1 20 153 102 51
12 1 20 255 51 102
7 2 20 153 102 51
13 2 20 255 51 102
6 3 20 153 102 51
14 3 20 153 102 51
5 4 20 153 102 51
15 4 20 153 102 51
4 5 20 153 102 51
16 5 20 153 102 51
3 6 20 153 102 51
17 6 20 153 102 51
2 7 20 153 102 51
18 7 20 153 102 51
1 8 20 153 102 51
19 8 20 153 102 51
10 19 20 153 102 51
17 19 20 153 102 51
11 18 20 153 102 51
8 17 20 153 102 51
12 17 20 153 102 51
7 16 20 153 102 51
13 16 20 153 102 51
6 15 20 153 102 51
14 15 20 153 102 51
5 14 20 153 102 51
15 14 20 153 102 51
4 13 20 153 102 51
16 13 20 153 102 51
3 12 20 153 102 51
17 12 20 153 102 51
2 11 20 153 102 51
18 11 20 153 102 51
1 10 20 153 102 51
19 10 20 153 102 51
0 9 20 153 102 51
8 0 20 153 102 51
12 0 20 153 102 51
7 1 20 153 102 51
13 1 20 153 102 51
6 2 20 153 102 51
14 2 20 153 102 51
5 3 20 153 102 51
15 3 20 153 102 51
4 4 20 153 102 51
16 4 20 153 102 51
3 5 20 153 102 51
17 5 20 153 102 51
2 6 20 153 102 51
18 6 20 153 102 51
1 7 20 153 102 51
19 7 20 153 102 51
0 8 20 153 102 51
3 19 20 153 102 51
11 19 20 153 102 51
8 18 20 153 102 51
12 18 20 153 102 51
7 17 20 153 102 51
13 17 20 153 102 51
6 16 20 153 102 51
14 16 20 153 102 51
5 15 20 153 102 51
15 15 20 153 102 51
4 14 20 153 102 51
16 14 20 153 102 51
3 13 20 153 102 51
17 13 20 153 102 51
2 12 20 153 102 51
18 12 20 153 102 51
1 11 20 153 102 51
19 11 20 153 102 51
0 10 20 153 102 51
7 0 20 153 102 51
13 0 20 153 102 51
6 1 20 153 102 51
14 1 20 153 102 51
5 2 20 153 102 51
15 2 20 153 102 51
4 3 20 153 102 51
16 3 20 153 102 51
3 4 20 153 102 51
17 4 20 153 102 51
2 5 20 153 102 51
18 5 20 153 102 51
1 6 20 153 102 51
19 6 20 153 102 51
0 7 20 153 102 51
8 19 20 153 102 51
12 19 20 153 102 51
7 18 20 153 102 51
13 18 20 153 102 51
6 17 20 153 102 51
14 17 20 153 102 51
5 16 20 153 102 51
15 16 20 153 102 51
4 15 20 153 102 51
16 15 20 153 102 51
3 14 20 153 102 51
17 14 20 153 102 51
2 13 20 153 102 51
18 13 20 153 102 51
1 12 20 153 102 51
19 12 20 153 102 51
0 11 20 153 102 51
6 0 20 153 102 51
14 0 20 153 102 51
5 1 20 153 102 51
15 1 20 153 102 51
4 2 20 153 102 51
16 2 20 153 102 51
3 3 20 153 102 51
17 3 20 153 102 51
2 4 20 153 102 51
18 4 20 153 102 51
1 5 20 153 102 51
19 5 20 153 102 51
0 6 20 153 102 51
7 19 20 153 102 51
13 19 20 153 102 51
6 18 20 153 102 51
14 18 20 153 102 51
5 17 20 153 102 51
15 17 20 153 102 51
4 16 20 153 102 51
16 16 20 153 102 51
3 15 20 153 102 51
17 15 20 153 102 51
2 14 20 153 102 51
18 14 20 153 102 51
1 13 20 153 102 51
19 13 20 153 102 51
0 12 20 153 102 51
5 0 20 153 102 51
15 0 20 153 102 51
4 1 20 153 102 51
16 1 20 153 102 51
3 2 20 153 102 51
17 2 20 153 102 51
2 3 20 153 102 51
18 3 20 153 102 51
1 4 20 153 102 51
19 4 20 153 102 51
0 5 20 153 102 51
6 19 20 153 102 51
14 19 20 153 102 51
5 18 20 153 102 51
15 18 20 153 102 51
4 17 20 153 102 51
16 17 20 153 102 51
3 16 20 153 102 51
17 16 20 153 102 51
2 15 20 153 102 51
18 15 20 153 102 51
1 14 20 153 102 51
19 14 20 153 102 51
0 13 20 153 102 51
4 0 20 153 102 51
16 0 20 153 102 51
3 1 20 153 102 51
17 1 20 153 102 51
2 2 20 153 102 51
18 2 20 153 102 51
1 3 20 153 102 51
19 3 20 153 102 51
0 4 20 153 102 51
5 19 20 153 102 51
15 19 20 153 102 51
4 18 20 153 102 51
16 18 20 153 102 51
3 17 20 153 102 51
17 17 20 153 102 51
2 16 20 153 102 51
18 16 20 153 102 51
1 15 20 153 102 51
19 15 20 153 102 51
0 14 20 153 102 51
3 0 20 153 102 51
17 0 20 153 102 51
2 1 20 153 102 51
18 1 20 153 102 51
1 2 20 153 102 51
19 2 20 153 102 51
0 3 20 153 102 51
4 19 20 153 102 51
16 19 20 153 102 51
3 18 20 153 102 51
17 18 20 153 102 51
2 17 20 153 102 51
18 17 20 153 102 51
1 16 20 153 102 51
19 16 20 153 102 51
0 15 20 153 102 51
2 0 20 153 102 51
18 0 20 153 102 51
1 1 20 153 102 51
19 1 20 153 102 51
0 2 20 153 102 51
5 13 32 153 102 51
5 12 32 255 255 153
5 14 32 153 102 51
4 13 32 153 102 51
6 13 32 255 255 153
5 11 32 153 102 51
4 12 32 153 102 51
6 12 32 255 255 0
4 14 32 153 102 51
6 14 32 153 102 51
7 13 32 153 102 51
5 10 32 153 102 51
4 11 32 153 102 51
6 11 32 255 255 153
7 12 32 255 255 153
7 14 32 153 102 51
8 13 32 153 102 51
5 9 32 153 102 51
4 10 32 153 102 51
6 10 32 153 102 51
7 11 32 153 102 51
8 12 32 153 102 51
8 14 32 153 102 51
9 13 32 153 102 51
5 8 32 153 102 51
4 9 32 153 102 51
6 9 32 153 102 51
7 10 32 153 102 51
8 11 32 153 102 51
9 12 32 153 102 51
9 14 32 153 102 51
10 13 32 153 102 51
5 7 32 153 102 51
4 8 32 153 102 51
6 8 32 153 102 51
7 9 32 153 102 51
8 10 32 153 102 51
9 11 32 153 102 51
10 12 32 153 102 51
10 14 32 153 102 51
11 13 32 153 102 51
5 6 32 153 102 51
4 7 32 153 102 51
6 7 32 153 102 51
7 8 32 153 102 51
8 9 32 153 102 51
9 10 32 153 102 51
10 11 32 153 102 51
11 12 32 153 102 51
11 14 32 153 102 51
12 13 32 153 102 51
5 5 32 153 102 51
4 6 32 153 102 51
6 6 32 153 102 51
7 7 32 153 102 51
8 8 32 153 102 51
9 9 32 153 102 51
10 10 32 153 102 51
11 11 32 153 102 51
12 12 32 153 102 51
12 14 32 153 102 51
4 5 32 153 102 51
6 5 32 153 102 51
7 6 32 153 102 51
8 7 32 153 102 51
9 8 32 153 102 51
10 9 32 153 102 51
11 10 32 153 102 51
12 11 32 153 102 51
7 5 32 153 102 51
8 6 32 153 102 51
9 7 32 51 204 51
10 8 32 51 204 51
11 9 32 153 102 51
12 10 32 153 102 51
8 5 32 153 102 51
9 6 32 153 102 51
10 7 32 51 255 0
11 8 32 153 102 51
12 9 32 153 102 51
9 5 32 153 102 51
10 6 32 51 204 51
11 7 32 51 204 51
12 8 32 153 102 51
10 5 32 153 102 51
11 6 32 153 102 51
12 7 32 153 102 51
11 5 32 153 102 51
12 6 32 153 102 51
12 5 32 153 102 51
